<?xml version="1.0" standalone="no"?>
<!DOCTYPE svg PUBLIC "-//W3C//DTD SVG 20010904//EN"
 "http://www.w3.org/TR/2001/REC-SVG-20010904/DTD/svg10.dtd">
<svg version="1.0" xmlns="http://www.w3.org/2000/svg"
 width="512.000000pt" height="512.000000pt" viewBox="0 0 512.000000 512.000000"
 preserveAspectRatio="xMidYMid meet">

<g transform="translate(0.000000,512.000000) scale(0.100000,-0.100000)"
fill="#000000" stroke="none">
<path d="M4415 4744 c-172 -38 -262 -108 -424 -326 -67 -90 -521 -705 -1009
-1367 -488 -662 -899 -1213 -914 -1224 -18 -13 -34 -18 -51 -13 -16 4 -194
193 -505 539 -264 294 -508 559 -541 590 -65 60 -155 109 -241 132 -71 19
-220 19 -293 0 -188 -49 -346 -199 -408 -386 -20 -61 -24 -93 -23 -184 0 -126
24 -209 86 -305 42 -66 1386 -1559 1482 -1647 79 -72 191 -133 302 -164 62
-18 104 -23 194 -22 141 1 237 24 353 85 161 85 137 56 1414 1788 642 872
1182 1609 1200 1638 135 224 99 514 -86 702 -36 37 -87 79 -114 94 -124 73
-288 100 -422 70z"/>
</g>
</svg>
